<svg width="35" height="35" viewBox="0 0 35 35" fill="none" xmlns="http://www.w3.org/2000/svg">
<path fill-rule="evenodd" clip-rule="evenodd" d="M30.4788 4.40827C26.5413 0.475238 19.9788 0.475238 16.0413 4.40827L6.27051 14.3137C5.97884 14.605 5.83301 14.8964 5.83301 15.3334V27.1324L1.89551 31.0655C1.31217 31.6481 1.31217 32.5222 1.89551 33.1048C2.18717 33.3962 2.47884 33.5418 2.91634 33.5418C3.35384 33.5418 3.64551 33.3962 3.93717 33.1048L7.87467 29.1718H19.6872C20.1247 29.1718 20.4163 29.0261 20.708 28.7348L30.4788 18.8294C34.5622 14.8964 34.5622 8.48697 30.4788 4.40827ZM19.1038 26.2584H10.7913L13.708 23.3451H22.0205L19.1038 26.2584ZM24.9372 20.4317L28.4372 16.79C31.3538 14.0223 31.3538 9.36097 28.583 6.44762C25.6663 3.53426 21.1455 3.53426 18.2288 6.44762L8.74967 15.916V24.2191L12.1038 20.8687L22.3122 10.672C22.8955 10.0893 23.7705 10.0893 24.3538 10.672C24.9372 11.2547 24.9372 12.1287 24.3538 12.7113L16.6247 20.4317H24.7913H24.9372Z" fill="black"/>
<mask id="mask0_388_39157" style="mask-type:alpha" maskUnits="userSpaceOnUse" x="1" y="1" width="33" height="33">
<path fill-rule="evenodd" clip-rule="evenodd" d="M30.4788 4.40827C26.5413 0.475238 19.9788 0.475238 16.0413 4.40827L6.27051 14.3137C5.97884 14.605 5.83301 14.8964 5.83301 15.3334V27.1324L1.89551 31.0655C1.31217 31.6481 1.31217 32.5222 1.89551 33.1048C2.18717 33.3962 2.47884 33.5418 2.91634 33.5418C3.35384 33.5418 3.64551 33.3962 3.93717 33.1048L7.87467 29.1718H19.6872C20.1247 29.1718 20.4163 29.0261 20.708 28.7348L30.4788 18.8294C34.5622 14.8964 34.5622 8.48697 30.4788 4.40827ZM19.1038 26.2584H10.7913L13.708 23.3451H22.0205L19.1038 26.2584ZM24.9372 20.4317L28.4372 16.79C31.3538 14.0223 31.3538 9.36097 28.583 6.44762C25.6663 3.53426 21.1455 3.53426 18.2288 6.44762L8.74967 15.916V24.2191L12.1038 20.8687L22.3122 10.672C22.8955 10.0893 23.7705 10.0893 24.3538 10.672C24.9372 11.2547 24.9372 12.1287 24.3538 12.7113L16.6247 20.4317H24.7913H24.9372Z" fill="white"/>
</mask>
<g mask="url(#mask0_388_39157)">
<rect width="35" height="35" fill="white"/>
</g>
</svg>
