<svg width="38" height="38" viewBox="0 0 38 38" fill="none" xmlns="http://www.w3.org/2000/svg">
<path fill-rule="evenodd" clip-rule="evenodd" d="M30.0837 3.1665H7.91699C5.22533 3.1665 3.16699 5.22484 3.16699 7.9165V30.0832C3.16699 32.7748 5.22533 34.8332 7.91699 34.8332H30.0837C32.7753 34.8332 34.8337 32.7748 34.8337 30.0832V7.9165C34.8337 5.22484 32.7753 3.1665 30.0837 3.1665ZM6.33366 7.9165C6.33366 6.9665 6.96699 6.33317 7.91699 6.33317H30.0837C31.0337 6.33317 31.667 6.9665 31.667 7.9165V19.9498L26.442 14.7248C25.8087 14.0915 24.8587 14.0915 24.2253 14.7248L7.44199 31.5082C6.80866 31.3498 6.33366 30.7165 6.33366 30.0832V7.9165ZM11.717 31.6665H30.0837C31.0337 31.6665 31.667 31.0332 31.667 30.0832V24.3832L25.3337 18.0498L11.717 31.6665ZM13.4587 17.4165C15.6753 17.4165 17.417 15.6748 17.417 13.4582C17.417 11.2415 15.6753 9.49984 13.4587 9.49984C11.242 9.49984 9.50033 11.2415 9.50033 13.4582C9.50033 15.6748 11.242 17.4165 13.4587 17.4165ZM14.2503 13.4582C14.2503 12.9832 13.9337 12.6665 13.4587 12.6665C12.9837 12.6665 12.667 12.9832 12.667 13.4582C12.667 13.9332 12.9837 14.2498 13.4587 14.2498C13.9337 14.2498 14.2503 13.9332 14.2503 13.4582Z" fill="black"/>
<mask id="mask0_388_39134" style="mask-type:alpha" maskUnits="userSpaceOnUse" x="3" y="3" width="32" height="32">
<path fill-rule="evenodd" clip-rule="evenodd" d="M30.0837 3.1665H7.91699C5.22533 3.1665 3.16699 5.22484 3.16699 7.9165V30.0832C3.16699 32.7748 5.22533 34.8332 7.91699 34.8332H30.0837C32.7753 34.8332 34.8337 32.7748 34.8337 30.0832V7.9165C34.8337 5.22484 32.7753 3.1665 30.0837 3.1665ZM6.33366 7.9165C6.33366 6.9665 6.96699 6.33317 7.91699 6.33317H30.0837C31.0337 6.33317 31.667 6.9665 31.667 7.9165V19.9498L26.442 14.7248C25.8087 14.0915 24.8587 14.0915 24.2253 14.7248L7.44199 31.5082C6.80866 31.3498 6.33366 30.7165 6.33366 30.0832V7.9165ZM11.717 31.6665H30.0837C31.0337 31.6665 31.667 31.0332 31.667 30.0832V24.3832L25.3337 18.0498L11.717 31.6665ZM13.4587 17.4165C15.6753 17.4165 17.417 15.6748 17.417 13.4582C17.417 11.2415 15.6753 9.49984 13.4587 9.49984C11.242 9.49984 9.50033 11.2415 9.50033 13.4582C9.50033 15.6748 11.242 17.4165 13.4587 17.4165ZM14.2503 13.4582C14.2503 12.9832 13.9337 12.6665 13.4587 12.6665C12.9837 12.6665 12.667 12.9832 12.667 13.4582C12.667 13.9332 12.9837 14.2498 13.4587 14.2498C13.9337 14.2498 14.2503 13.9332 14.2503 13.4582Z" fill="white"/>
</mask>
<g mask="url(#mask0_388_39134)">
<rect width="38" height="38" fill="white"/>
</g>
</svg>
